<mxfile host="app.diagrams.net" modified="2023-09-12T18:25:39.694Z" agent="Mozilla/5.0 (Windows NT 10.0; Win64; x64) AppleWebKit/537.36 (KHTML, like Gecko) Chrome/116.0.0.0 Safari/537.36" etag="AN4y1wMN-CvMTHr_65mV" version="21.7.4" type="github">
  <diagram name="Página-1" id="BEeG_p1P41INeJ9i-FPz">
    <mxGraphModel dx="1467" dy="1952" grid="1" gridSize="10" guides="1" tooltips="1" connect="1" arrows="1" fold="1" page="1" pageScale="1" pageWidth="827" pageHeight="1169" math="0" shadow="0">
      <root>
        <mxCell id="0" />
        <mxCell id="1" parent="0" />
        <mxCell id="mE4YtEU8vUPrZ0Cwn6l8-5" style="edgeStyle=orthogonalEdgeStyle;rounded=0;orthogonalLoop=1;jettySize=auto;html=1;entryX=0;entryY=0.5;entryDx=0;entryDy=0;exitX=0.75;exitY=0.1;exitDx=0;exitDy=0;exitPerimeter=0;" parent="1" source="mE4YtEU8vUPrZ0Cwn6l8-1" target="mE4YtEU8vUPrZ0Cwn6l8-4" edge="1">
          <mxGeometry relative="1" as="geometry">
            <mxPoint x="440" y="-220" as="sourcePoint" />
            <Array as="points">
              <mxPoint x="518" y="-251" />
            </Array>
          </mxGeometry>
        </mxCell>
        <mxCell id="mE4YtEU8vUPrZ0Cwn6l8-18" style="edgeStyle=orthogonalEdgeStyle;rounded=0;orthogonalLoop=1;jettySize=auto;html=1;exitX=1;exitY=1;exitDx=0;exitDy=0;exitPerimeter=0;entryX=0;entryY=0.5;entryDx=0;entryDy=0;" parent="1" source="mE4YtEU8vUPrZ0Cwn6l8-1" edge="1" target="mE4YtEU8vUPrZ0Cwn6l8-6">
          <mxGeometry relative="1" as="geometry">
            <mxPoint x="420" y="-160" as="targetPoint" />
            <Array as="points">
              <mxPoint x="420" y="-160" />
              <mxPoint x="500" y="-160" />
            </Array>
          </mxGeometry>
        </mxCell>
        <mxCell id="mE4YtEU8vUPrZ0Cwn6l8-1" value="&lt;font style=&quot;font-size: 16px;&quot;&gt;leitor&lt;/font&gt;" style="shape=umlActor;verticalLabelPosition=bottom;verticalAlign=top;html=1;outlineConnect=0;" parent="1" vertex="1">
          <mxGeometry x="380" y="-260" width="40" height="90" as="geometry" />
        </mxCell>
        <mxCell id="mE4YtEU8vUPrZ0Cwn6l8-4" value="&lt;font style=&quot;font-size: 17px;&quot;&gt;acesso ao empréstimo e ISBN&lt;/font&gt;" style="ellipse;whiteSpace=wrap;html=1;" parent="1" vertex="1">
          <mxGeometry x="500" y="-290" width="120" height="80" as="geometry" />
        </mxCell>
        <mxCell id="mE4YtEU8vUPrZ0Cwn6l8-6" value="&lt;font style=&quot;font-size: 17px;&quot;&gt;acesso a devolução&lt;/font&gt;" style="ellipse;whiteSpace=wrap;html=1;" parent="1" vertex="1">
          <mxGeometry x="500" y="-200" width="120" height="80" as="geometry" />
        </mxCell>
        <mxCell id="mE4YtEU8vUPrZ0Cwn6l8-25" value="&lt;font style=&quot;font-size: 18px;&quot;&gt;registrar&lt;/font&gt;" style="ellipse;whiteSpace=wrap;html=1;" parent="1" vertex="1">
          <mxGeometry x="707" y="-550" width="120" height="80" as="geometry" />
        </mxCell>
        <mxCell id="mE4YtEU8vUPrZ0Cwn6l8-26" value="&lt;font style=&quot;font-size: 17px;&quot;&gt;livros disponiveis&lt;/font&gt;" style="ellipse;whiteSpace=wrap;html=1;" parent="1" vertex="1">
          <mxGeometry x="707" y="-460" width="120" height="80" as="geometry" />
        </mxCell>
        <mxCell id="mE4YtEU8vUPrZ0Cwn6l8-28" style="edgeStyle=orthogonalEdgeStyle;rounded=0;orthogonalLoop=1;jettySize=auto;html=1;entryX=1;entryY=0.5;entryDx=0;entryDy=0;" parent="1" edge="1">
          <mxGeometry relative="1" as="geometry">
            <mxPoint x="930" y="-420" as="sourcePoint" />
            <mxPoint x="827.0000000000082" y="-420" as="targetPoint" />
          </mxGeometry>
        </mxCell>
        <mxCell id="1d8I8y4L3X-RtYmpqxEc-6" style="edgeStyle=orthogonalEdgeStyle;rounded=0;orthogonalLoop=1;jettySize=auto;html=1;entryX=1;entryY=0.5;entryDx=0;entryDy=0;exitX=1;exitY=0.3333333333333333;exitDx=0;exitDy=0;exitPerimeter=0;" edge="1" parent="1" source="mE4YtEU8vUPrZ0Cwn6l8-27" target="1d8I8y4L3X-RtYmpqxEc-9">
          <mxGeometry relative="1" as="geometry">
            <mxPoint x="827.0000000000082" y="-330" as="targetPoint" />
            <Array as="points">
              <mxPoint x="990" y="-420" />
              <mxPoint x="990" y="-300" />
            </Array>
          </mxGeometry>
        </mxCell>
        <mxCell id="1d8I8y4L3X-RtYmpqxEc-7" style="edgeStyle=orthogonalEdgeStyle;rounded=0;orthogonalLoop=1;jettySize=auto;html=1;entryX=1;entryY=0.5;entryDx=0;entryDy=0;exitX=0.5;exitY=0;exitDx=0;exitDy=0;exitPerimeter=0;" edge="1" parent="1" source="mE4YtEU8vUPrZ0Cwn6l8-27" target="mE4YtEU8vUPrZ0Cwn6l8-25">
          <mxGeometry relative="1" as="geometry">
            <mxPoint x="945" y="-440" as="sourcePoint" />
          </mxGeometry>
        </mxCell>
        <mxCell id="1d8I8y4L3X-RtYmpqxEc-12" style="edgeStyle=orthogonalEdgeStyle;rounded=0;orthogonalLoop=1;jettySize=auto;html=1;entryX=1;entryY=0.5;entryDx=0;entryDy=0;" edge="1" parent="1" source="mE4YtEU8vUPrZ0Cwn6l8-27" target="1d8I8y4L3X-RtYmpqxEc-11">
          <mxGeometry relative="1" as="geometry">
            <Array as="points">
              <mxPoint x="1040" y="-410" />
              <mxPoint x="1040" y="-220" />
            </Array>
          </mxGeometry>
        </mxCell>
        <mxCell id="1d8I8y4L3X-RtYmpqxEc-14" style="edgeStyle=orthogonalEdgeStyle;rounded=0;orthogonalLoop=1;jettySize=auto;html=1;entryX=1;entryY=0.5;entryDx=0;entryDy=0;exitX=0.5;exitY=0;exitDx=0;exitDy=0;exitPerimeter=0;" edge="1" parent="1" source="mE4YtEU8vUPrZ0Cwn6l8-27" target="1d8I8y4L3X-RtYmpqxEc-13">
          <mxGeometry relative="1" as="geometry">
            <Array as="points">
              <mxPoint x="945" y="-450" />
              <mxPoint x="1080" y="-450" />
              <mxPoint x="1080" y="30" />
            </Array>
          </mxGeometry>
        </mxCell>
        <mxCell id="1d8I8y4L3X-RtYmpqxEc-17" style="edgeStyle=orthogonalEdgeStyle;rounded=0;orthogonalLoop=1;jettySize=auto;html=1;entryX=0.5;entryY=0;entryDx=0;entryDy=0;exitX=0;exitY=1;exitDx=0;exitDy=0;exitPerimeter=0;" edge="1" parent="1" source="mE4YtEU8vUPrZ0Cwn6l8-27" target="mE4YtEU8vUPrZ0Cwn6l8-4">
          <mxGeometry relative="1" as="geometry">
            <Array as="points">
              <mxPoint x="870" y="-380" />
              <mxPoint x="870" y="-370" />
              <mxPoint x="560" y="-370" />
            </Array>
          </mxGeometry>
        </mxCell>
        <mxCell id="1d8I8y4L3X-RtYmpqxEc-18" style="edgeStyle=orthogonalEdgeStyle;rounded=0;orthogonalLoop=1;jettySize=auto;html=1;entryX=1;entryY=0.5;entryDx=0;entryDy=0;exitX=1;exitY=1;exitDx=0;exitDy=0;exitPerimeter=0;" edge="1" parent="1" source="mE4YtEU8vUPrZ0Cwn6l8-27" target="mE4YtEU8vUPrZ0Cwn6l8-6">
          <mxGeometry relative="1" as="geometry">
            <Array as="points">
              <mxPoint x="970" y="-380" />
              <mxPoint x="970" y="-350" />
              <mxPoint x="680" y="-350" />
              <mxPoint x="680" y="-160" />
            </Array>
          </mxGeometry>
        </mxCell>
        <mxCell id="mE4YtEU8vUPrZ0Cwn6l8-27" value="&lt;font style=&quot;font-size: 17px;&quot;&gt;bibliotecario&lt;/font&gt;" style="shape=umlActor;verticalLabelPosition=bottom;verticalAlign=top;html=1;outlineConnect=0;strokeWidth=1;" parent="1" vertex="1">
          <mxGeometry x="910" y="-440" width="30" height="60" as="geometry" />
        </mxCell>
        <mxCell id="1d8I8y4L3X-RtYmpqxEc-9" value="&lt;font style=&quot;font-size: 17px;&quot;&gt;livros emprestados&lt;/font&gt;" style="ellipse;whiteSpace=wrap;html=1;" vertex="1" parent="1">
          <mxGeometry x="707" y="-340" width="120" height="80" as="geometry" />
        </mxCell>
        <mxCell id="1d8I8y4L3X-RtYmpqxEc-11" value="&lt;font style=&quot;font-size: 17px;&quot;&gt;leitores registrados&lt;/font&gt;" style="ellipse;whiteSpace=wrap;html=1;" vertex="1" parent="1">
          <mxGeometry x="707" y="-260" width="120" height="80" as="geometry" />
        </mxCell>
        <mxCell id="1d8I8y4L3X-RtYmpqxEc-13" value="&lt;font style=&quot;font-size: 17px;&quot;&gt;historico&lt;/font&gt;" style="ellipse;whiteSpace=wrap;html=1;" vertex="1" parent="1">
          <mxGeometry x="707" y="-160" width="120" height="80" as="geometry" />
        </mxCell>
      </root>
    </mxGraphModel>
  </diagram>
</mxfile>
